<svg xmlns="http://www.w3.org/2000/svg" viewBox="0 0 298.69 298.69"><defs><style>.cls-1{fill:#fff;}</style></defs><g id="Layer_3" data-name="Layer 3"><path class="cls-1" d="M298.92,133a22.39,22.39,0,0,1-11.4-42.53,147.74,147.74,0,0,0-16.94-29.39A22.39,22.39,0,0,1,239.42,30a150.18,150.18,0,0,0-29.38-17A22.4,22.4,0,0,1,167.52,1.61a148.57,148.57,0,0,0-33.92,0A22.4,22.4,0,0,1,91.07,13,148.1,148.1,0,0,0,61.67,30a22.39,22.39,0,0,1-31.1,31.16,150.18,150.18,0,0,0-17,29.38A22.4,22.4,0,0,1,2.17,133,148.57,148.57,0,0,0,2.2,167a22.4,22.4,0,0,1,11.4,42.53,147.74,147.74,0,0,0,16.94,29.39A22.39,22.39,0,0,1,61.7,270a150.18,150.18,0,0,0,29.38,17,22.4,22.4,0,0,1,42.52,11.44,148.57,148.57,0,0,0,33.92,0A22.4,22.4,0,0,1,210.05,287,147.74,147.74,0,0,0,239.44,270a22.39,22.39,0,0,1,31.11-31.16,150.68,150.68,0,0,0,17-29.38A22.39,22.39,0,0,1,299,167,148.57,148.57,0,0,0,298.92,133ZM150.56,262a112,112,0,1,1,112-112A112,112,0,0,1,150.56,262Z" transform="translate(-1.21 -0.65)"/></g><g id="Layer_2" data-name="Layer 2"><path class="cls-1" d="M188.37,102.55a28.42,28.42,0,0,1,26.85,25.88l-.59.44a11.16,11.16,0,0,0-13.32,0,8.51,8.51,0,0,0-1-.74,13.47,13.47,0,0,0-13.2-10.83h-73a13.49,13.49,0,0,0-13.31,11.41,18.89,18.89,0,0,0-6.46-1.26,18.64,18.64,0,0,0-8.44,1.77,28.41,28.41,0,0,1,26.91-26.67V99.71A37.35,37.35,0,0,1,150,62.45h1.1a37.35,37.35,0,0,1,37.26,37.26Zm-73.65,73.2c.34-15.18-6.15-41.11-20.59-41.43s-22.42,26.22-22.42,40.84c0,8.08,6.31,13.45,14.09,15.67v4.7a28.37,28.37,0,0,0,28.25,28.25h73a28.37,28.37,0,0,0,28.25-28.25V193c7.43-1.52,13.35-5.43,13-11.75l-2.84-45.11c-.55-4.12-7.06-3.7-7.36,0l1.67,38.09c.19,4.43-6.54,4.43-6.74,0l-1.66-38.09c-.45-3.56-6.28-3.56-6.73,0l-1.67,38.09c-.19,4.43-6.93,4.43-6.74,0l1.67-38.09c-.3-3.7-6.81-4.12-7.36,0l-2.84,45.11c-.4,6.29,5.47,10.2,12.87,11.73v2.53A13.48,13.48,0,0,1,187.07,209h-73a13.48,13.48,0,0,1-13.47-13.47v-4.26C108.23,189.52,114.46,184.49,114.72,175.75ZM150,143.61a11.61,11.61,0,0,1,6.71,21.08L160,183.36H140l3.31-18.67A11.61,11.61,0,0,1,150,143.61Zm-22.47-41.09h46.06V99.71a22.57,22.57,0,0,0-22.48-22.48H150a22.57,22.57,0,0,0-22.48,22.48Z" transform="translate(-1.21 -0.65)"/></g></svg>